<svg xmlns="http://www.w3.org/2000/svg" width="32" height="32" viewBox="0 0 32 32"><g class="nc-icon-wrapper" stroke-linecap="square" stroke-linejoin="miter" stroke-width="2" fill="#aaaaaa" stroke="#aaaaaa"><line data-color="color-2" fill="none" stroke-miterlimit="10" x1="19" y1="15" x2="26" y2="15"/> <line data-color="color-2" fill="none" stroke-miterlimit="10" x1="19" y1="20" x2="26" y2="20"/> <circle data-color="color-2" fill="none" stroke-miterlimit="10" cx="10" cy="14" r="2"/> <path data-color="color-2" fill="none" stroke-miterlimit="10" d="M15,23H5v0 c0-2.209,1.791-4,4-4h2C13.209,19,15,20.791,15,23L15,23z"/> <path fill="none" stroke="#aaaaaa" stroke-miterlimit="10" d="M25,4c0,1.657-1.343,3-3,3 s-3-1.343-3-3h-6c0,1.657-1.343,3-3,3S7,5.657,7,4H1v24h30V4H25z"/></g></svg>