<svg xmlns="http://www.w3.org/2000/svg" width="508.5" height="508.5" viewBox="0 0 508.5 508.5"><g class="nc-icon-wrapper" fill="#ffffff"><path d="M277.6 39.4H144.5c-59.6 0-115.8 45.2-115.8 97.5 0 53.5 40.7 96.7 101.4 96.7l12.3-.4c-3.9 7.5-6.8 16-6.8 24.9 0 14.9 8 26.9 18.1 36.7l-23.1.3C56.9 295.1 0 342.2 0 391c0 48.1 62.4 78.1 136.2 78.1 84.2 0 130.8-47.8 130.8-95.9 0-38.5-11.4-61.6-46.5-86.5-12-8.5-35-29.2-35-41.4 0-14.3 4.1-21.3 25.6-38.1 22-17.2 37.6-41.4 37.6-69.5 0-33.5-14.9-66.1-42.9-76.8H248l29.6-21.5zM231.2 365c1 4.5 1.6 9 1.6 13.7 0 38.9-25 69.2-96.8 69.2-51.1 0-87.9-32.3-87.9-71.2 0-38 45.7-69.7 96.8-69.2 11.9.2 23 2 33.1 5.3 27.7 19.3 47.6 30.2 53.2 52.2zm-81.8-144.9c-34.3-1-66.9-38.4-72.8-83.4-5.9-45 17.1-79.5 51.3-78.5 34.3 1 66.9 37.2 72.8 82.2 6 45.1-17.1 80.7-51.3 79.7zm263.8-86.4V39.4h-31.8v94.3H286v31.8h95.4v96.4h31.8v-96.4h95.3v-31.8z"/></g></svg>